<svg version="1.1" id="Layer_1" xmlns="http://www.w3.org/2000/svg" xmlns:xlink="http://www.w3.org/1999/xlink" x="0px" y="0px"
	 width="100%" viewBox="0 0 1313 2563" enable-background="new 0 0 1313 2563" xml:space="preserve">
<path fill="#FFFFFF" opacity="1.000000" stroke="none" 
	d="
M451.000000,2564.000000 
	C300.666656,2564.000000 150.833328,2564.000000 1.000000,2564.000000 
	C1.000000,1709.666626 1.000000,855.333313 1.000000,1.000000 
	C438.666656,1.000000 876.333313,1.000000 1314.000000,1.000000 
	C1314.000000,855.333313 1314.000000,1709.666626 1314.000000,2564.000000 
	C1026.500000,2564.000000 739.000000,2564.000000 451.000000,2564.000000 
M30.035370,2456.399170 
	C38.401394,2468.474365 45.927601,2481.254639 55.334442,2492.455811 
	C68.753090,2508.434082 85.406944,2520.908203 103.619400,2531.204834 
	C135.117004,2549.011963 169.346130,2556.839600 205.107880,2556.867920 
	C500.600159,2557.101318 796.092712,2557.007568 1091.585205,2556.958008 
	C1099.504028,2556.956787 1107.450928,2556.644287 1115.334839,2555.927490 
	C1126.850464,2554.880127 1138.346558,2553.524414 1149.804199,2551.957764 
	C1166.857056,2549.625977 1182.754883,2543.374268 1197.999390,2535.831543 
	C1211.600342,2529.101318 1224.270752,2520.775146 1235.942871,2510.789062 
	C1253.671997,2495.620605 1268.198364,2477.994629 1279.613403,2457.783936 
	C1297.676025,2425.803711 1304.828979,2390.799072 1304.839966,2354.643311 
	C1305.055298,1647.161377 1305.013306,939.679382 1304.916504,232.197464 
	C1304.914307,216.027817 1304.398071,199.784637 1302.776978,183.711365 
	C1301.403687,170.092377 1299.246826,156.327026 1295.392700,143.227829 
	C1285.677979,110.210915 1268.418213,81.566734 1242.765137,58.176319 
	C1226.957520,43.762943 1209.510010,32.132401 1189.954834,23.351423 
	C1163.283447,11.374944 1135.167114,6.165468 1106.312500,6.142197 
	C816.486755,5.908444 526.660706,5.985512 236.834778,6.042522 
	C222.249390,6.045391 207.650314,6.384536 193.083740,7.099673 
	C183.480179,7.571154 173.881622,8.703899 164.354996,10.061224 
	C147.044983,12.527502 130.598343,18.085825 114.908829,25.646265 
	C90.380234,37.466068 69.236748,53.721989 51.706074,74.700745 
	C40.130478,88.553116 30.821213,103.671959 23.350609,120.092461 
	C11.313139,146.550995 6.162323,174.569809 6.154414,203.235977 
	C5.957592,916.551086 6.007713,1629.866211 5.957659,2343.181396 
	C5.956341,2361.963623 6.707765,2380.648926 10.003691,2399.169434 
	C13.548359,2419.087646 19.886444,2438.024902 30.035370,2456.399170 
z"/>
<path fill="#000000" opacity="1.000000" stroke="none" 
	d="
M30.000755,2456.017578 
	C19.886444,2438.024902 13.548359,2419.087646 10.003691,2399.169434 
	C6.707765,2380.648926 5.956341,2361.963623 5.957659,2343.181396 
	C6.007713,1629.866211 5.957592,916.551086 6.154414,203.235977 
	C6.162323,174.569809 11.313139,146.550995 23.350609,120.092461 
	C30.821213,103.671959 40.130478,88.553116 51.706074,74.700745 
	C69.236748,53.721989 90.380234,37.466068 114.908829,25.646265 
	C130.598343,18.085825 147.044983,12.527502 164.354996,10.061224 
	C173.881622,8.703899 183.480179,7.571154 193.083740,7.099673 
	C207.650314,6.384536 222.249390,6.045391 236.834778,6.042522 
	C526.660706,5.985512 816.486755,5.908444 1106.312500,6.142197 
	C1135.167114,6.165468 1163.283447,11.374944 1189.954834,23.351423 
	C1209.510010,32.132401 1226.957520,43.762943 1242.765137,58.176319 
	C1268.418213,81.566734 1285.677979,110.210915 1295.392700,143.227829 
	C1299.246826,156.327026 1301.403687,170.092377 1302.776978,183.711365 
	C1304.398071,199.784637 1304.914307,216.027817 1304.916504,232.197464 
	C1305.013306,939.679382 1305.055298,1647.161377 1304.839966,2354.643311 
	C1304.828979,2390.799072 1297.676025,2425.803711 1279.613403,2457.783936 
	C1268.198364,2477.994629 1253.671997,2495.620605 1235.942871,2510.789062 
	C1224.270752,2520.775146 1211.600342,2529.101318 1197.999390,2535.831543 
	C1182.754883,2543.374268 1166.857056,2549.625977 1149.804199,2551.957764 
	C1138.346558,2553.524414 1126.850464,2554.880127 1115.334839,2555.927490 
	C1107.450928,2556.644287 1099.504028,2556.956787 1091.585205,2556.958008 
	C796.092712,2557.007568 500.600159,2557.101318 205.107880,2556.867920 
	C169.346130,2556.839600 135.117004,2549.011963 103.619400,2531.204834 
	C85.406944,2520.908203 68.753090,2508.434082 55.334442,2492.455811 
	C45.927601,2481.254639 38.401394,2468.474365 30.000755,2456.017578 
z"/>
</svg>